# xmcd
#
# Track frame offsets:
#	150
#	16128
#	33184
#	50689
#	66936
#	84079
#	108669
#	125186
#	140049
#	157433
#	173893
#	189950
#
# Disc length: 2772 seconds
# Revision: 0
# Processed by: cddbd v1.5.2PL0 Copyright (c) Steve Scherf et al.
# Submitted via: dBpowerAMP V12.0
#
DISCID=a90ad20c
DTITLE=Josh Turner - Live Across America
DYEAR=2012
DGENRE=Country
TTITLE0=All Over Me (Live in Biloxi, MS)
TTITLE1=Firecracker (Live in Lancaster, PA)
TTITLE2=Everything Is Fine (Live in Knoxville, TN)
TTITLE3=So Not My Baby (Live in Lake Charles, LA)
TTITLE4=Would You Go With Me (Live in Plant City, FL)
TTITLE5=Long Black Train (Live in Austin, TX)
TTITLE6=I Wouldn't Be A Man (Live in Savannah, GA)
TTITLE7=Me and God (Live in Key Largo, FL)
TTITLE8=Another Try (Live in Atlanta, GA)
TTITLE9=Your Man (Live in Kansas City, MO)
TTITLE10=America (Live in Charlottesville, VA)
TTITLE11=Why Don't We Just Dance (Live in Atlantic City, NJ)
EXTD=
EXTT0=
EXTT1=
EXTT2=
EXTT3=
EXTT4=
EXTT5=
EXTT6=
EXTT7=
EXTT8=
EXTT9=
EXTT10=
EXTT11=
PLAYORDER=
